<svg xmlns="http://www.w3.org/2000/svg" width="512.1" height="513" viewBox="0 0 512.1 513"><path d="M177.1,228.6,207.9,320h96.5l29.62-91.38L256,172.1ZM255.1,0C114.6,0,0,114.6,0,256S114.6,512,256,512,511.1,397.4,511.1,256.9,397.4,0,255.1,0ZM416.6,360.9l-85.4-1.3-25.15,81.59a186.865,186.865,0,0,1-100.14-.052L180.8,359.6l-85.4,1.3a190.578,190.578,0,0,1-30.88-95.31L134.3,216.4l-27.7-80.8a192.639,192.639,0,0,1,81.06-58.84L256,128l68.29-51.22a192.662,192.662,0,0,1,81.06,58.84L377.7,216.4l69.78,49.1A189.576,189.576,0,0,1,416.6,360.9Z" transform="translate(0.5 0.5)" fill="#f5f5f5" stroke="#fff" stroke-width="1"/></svg>